<?xml version="1.0" encoding="utf-8"?>
<!-- Generator: Adobe Illustrator 16.0.0, SVG Export Plug-In . SVG Version: 6.00 Build 0)  -->
<!DOCTYPE svg PUBLIC "-//W3C//DTD SVG 1.1//EN" "http://www.w3.org/Graphics/SVG/1.1/DTD/svg11.dtd">
<svg version="1.1" id="Layer_1" xmlns="http://www.w3.org/2000/svg" xmlns:xlink="http://www.w3.org/1999/xlink" x="0px" y="0px"
	 width="227.125px" height="185px" viewBox="0 0 227.125 185" enable-background="new 0 0 227.125 185" xml:space="preserve">
<rect fill="#858585" width="35" height="51.47"/>
<polygon fill="#FFFFFF" points="21.84,18.572 21.816,18.572 13.184,18.572 13.16,18.572 9.878,18.572 9.878,21.878 13.16,21.878 
	13.184,21.878 21.816,21.878 21.84,21.878 25.122,21.878 25.122,18.572 "/>
<polygon fill="#FFFFFF" points="21.816,24.082 13.184,24.082 13.16,24.082 9.878,24.082 9.878,27.388 13.16,27.388 13.184,27.388 
	21.816,27.388 21.84,27.388 25.122,27.388 25.122,24.082 21.84,24.082 "/>
<polygon fill="#FFFFFF" points="21.816,29.592 13.184,29.592 13.16,29.592 9.878,29.592 9.878,32.898 13.16,32.898 13.184,32.898 
	21.816,32.898 21.84,32.898 25.122,32.898 25.122,29.592 21.84,29.592 "/>
<rect y="54.394" fill="#d63d4b" width="35" height="51.471"/>
<polygon fill="#FFFFFF" points="21.84,72.967 21.816,72.967 13.184,72.967 13.161,72.967 9.878,72.967 9.878,76.272 13.161,76.272 
	13.184,76.272 21.816,76.272 21.84,76.272 25.122,76.272 25.122,72.967 "/>
<polygon fill="#FFFFFF" points="21.816,78.476 13.184,78.476 13.161,78.476 9.878,78.476 9.878,81.783 13.161,81.783 13.184,81.783 
	21.816,81.783 21.84,81.783 25.122,81.783 25.122,78.476 21.84,78.476 "/>
<polygon fill="#FFFFFF" points="21.816,83.987 13.184,83.987 13.161,83.987 9.878,83.987 9.878,87.292 13.161,87.292 13.184,87.292 
	21.816,87.292 21.84,87.292 25.122,87.292 25.122,83.987 21.84,83.987 "/>
</svg>
