<?xml version="1.0" encoding="utf-8"?>
<!-- Generator: Adobe Illustrator 16.0.0, SVG Export Plug-In . SVG Version: 6.00 Build 0)  -->
<!DOCTYPE svg PUBLIC "-//W3C//DTD SVG 1.1//EN" "http://www.w3.org/Graphics/SVG/1.1/DTD/svg11.dtd">
<svg version="1.1" id="Layer_1" xmlns="http://www.w3.org/2000/svg" xmlns:xlink="http://www.w3.org/1999/xlink" x="0px" y="0px"
	 width="169.676px" height="168.419px" viewBox="0 0 169.676 168.419" enable-background="new 0 0 169.676 168.419"
	 xml:space="preserve">
<g>
	<path fill="#d63d4b" d="M90.104,67.512c4.938,2.254,11.205,6.471,13.674,18.856c2.59,12.992,14.482,30.079,17.196,46.971
		c1.393,8.665,2.058,28.967-12.22,33.64s-20.587-2.878-43.645-10.414c-20.428-6.678-35.31-3.121-48.355-13.767
		c-12.103-12.962,3.093-32.877,6.757-38.371C29.091,96.059,69.022,57.888,90.104,67.512"/>
	<path fill="#d63d4b" d="M43.737,56.61c-1.336,23.019-8.751,36.245-25.309,33.735C3.297,88.055-3.029,72.179,1.371,53.076
		C7.964,24.424,46.304,12.332,43.737,56.61"/>
	<path fill="#d63d4b" d="M86.848,46.412C97.371,24.277,96.621,2.45,72.881,0.128C54.261-1.694,49.437,16.24,49.212,34.721
		C48.91,59.597,75.506,70.277,86.848,46.412"/>
	<path fill="#d63d4b" d="M124.393,67.87c21.036-9.459,25.095-45.629,11.354-52.701c-17.641-8.778-32.521,10.346-38.804,28.368
		C89.903,63.727,103.356,77.329,124.393,67.87"/>
	<path fill="#d63d4b" d="M149.652,61.69c-27.34,14.297-43.682,40.913-18.44,52.907c12.175,5.787,26.901,1.306,34.071-20.219
		C173.03,71.114,172.089,49.958,149.652,61.69"/>
</g>
</svg>



